# ASF file generated by Tido's ASF writer for MATLAB.
:version 1.10
:name VICON
:units
  mass 1
  length 0.45000000000000001
  angle deg
:documentation
   .ast/.asf automatically generated from VICON data using
   VICON BodyBuilder and BodyLanguage model FoxedUp or BRILLIANT.MOD
:root
  axis xyz
  order tx ty tz rx ry rz 
  position 0 0 0
  orientation 0 0 0
:bonedata
  begin
    id 1
    name lhipjoint
    direction 0.44017800000000001 -0.82263900000000001 0.359871
    length 1.1390085000000001
    axis 0 0 0 xyz
  end
  begin
    id 2
    name lfemur
    direction 0.34201999999999999 -0.939693 0
    length 3.5465939999999998
    axis 0 0 20 xyz
    dof rx ry rz 
    limits (-160 20)
           (-70 70)
           (-60 70)
  end
  begin
    id 3
    name ltibia
    direction 0.34201999999999999 -0.939693 0
    length 3.7970234999999999
    axis 0 0 20 xyz
    dof rx 
    limits (-10 170)
  end
  begin
    id 4
    name lfoot
    direction 0.088635099999999994 -0.24352299999999999 0.96583699999999995
    length 1.1853629999999999
    axis -90 7.62852e-016 20 xyz
    dof rx rz 
    limits (-45 90)
           (-70 20)
  end
  begin
    id 5
    name ltoes
    direction 1.53703e-011 -4.2171700000000001e-011 1
    length 0.59142150000000004
    axis -90 7.62852e-016 20 xyz
    dof rx 
    limits (-90 20)
  end
  begin
    id 6
    name rhipjoint
    direction -0.399779 -0.83977299999999999 0.367367
    length 1.115766
    axis 0 0 0 xyz
  end
  begin
    id 7
    name rfemur
    direction -0.34201999999999999 -0.939693 0
    length 3.4866269999999999
    axis 0 0 -20 xyz
    dof rx ry rz 
    limits (-160 20)
           (-70 70)
           (-70 60)
  end
  begin
    id 8
    name rtibia
    direction -0.34201999999999999 -0.939693 0
    length 3.9349440000000002
    axis 0 0 -20 xyz
    dof rx 
    limits (-10 170)
  end
  begin
    id 9
    name rfoot
    direction -0.108514 -0.29813899999999999 0.94833400000000001
    length 1.1974590000000001
    axis -90 -7.62852e-016 -20 xyz
    dof rx rz 
    limits (-45 90)
           (-20 70)
  end
  begin
    id 10
    name rtoes
    direction -1.5339199999999999e-011 -4.2207699999999999e-011 1
    length 0.59392350000000005
    axis -90 -7.62852e-016 -20 xyz
    dof rx 
    limits (-90 20)
  end
  begin
    id 11
    name lowerback
    direction 0.011325699999999999 0.99986600000000003 0.0118602
    length 1.164123
    axis 0 0 0 xyz
    dof rx ry rz 
    limits (-20 45)
           (-30 30)
           (-30 30)
  end
  begin
    id 12
    name upperback
    direction -0.016474699999999998 0.99519299999999999 -0.096537499999999998
    length 1.135656
    axis 0 0 0 xyz
    dof rx ry rz 
    limits (-20 45)
           (-30 30)
           (-30 30)
  end
  begin
    id 13
    name thorax
    direction -0.019430099999999999 0.99433000000000005 -0.10455200000000001
    length 1.1524455
    axis 0 0 0 xyz
    dof rx ry rz 
    limits (-20 45)
           (-30 30)
           (-30 30)
  end
  begin
    id 14
    name lowerneck
    direction 0.014854300000000001 0.995587 -0.092657000000000003
    length 0.772119
    axis 0 0 0 xyz
    dof rx ry rz 
    limits (-20 45)
           (-30 30)
           (-30 30)
  end
  begin
    id 15
    name upperneck
    direction -0.0135467 0.99365599999999998 -0.111639
    length 0.76021650000000007
    axis 0 0 0 xyz
    dof rx ry rz 
    limits (-20 45)
           (-30 30)
           (-30 30)
  end
  begin
    id 16
    name head
    direction -0.0061534900000000002 0.99954699999999996 -0.029447999999999998
    length 0.78578999999999999
    axis 0 0 0 xyz
    dof rx ry rz 
    limits (-20 45)
           (-30 30)
           (-30 30)
  end
  begin
    id 17
    name lclavicle
    direction 0.98826700000000001 0.14988499999999999 0.029371299999999999
    length 2.012499
    axis 0 0 0 xyz
    dof ry rz 
    limits (-20 10)
           (0 20)
  end
  begin
    id 18
    name lhumerus
    direction 1 -4.4898600000000001e-011 -1.1483300000000001e-027
    length 2.4171659999999999
    axis 180 -30 -90 xyz
    dof rx ry rz 
    limits (-60 90)
           (-90 90)
           (-90 90)
  end
  begin
    id 19
    name lradius
    direction 0.99999800000000005 0.00170963 -0.00098705499999999992
    length 1.773954
    axis 180 -30 -90 xyz
    dof rx 
    limits (-10 170)
  end
  begin
    id 20
    name lwrist
    direction 0.99999800000000005 7.53149e-005 -0.00194706
    length 0.88697700000000002
    axis 4.6505600000000004e-015 90 90 xyz
    dof ry 
    limits (-180 0)
  end
  begin
    id 21
    name lhand
    direction 1 -4.48973e-011 -1.3174599999999999e-026
    length 0.5306265
    axis 8.4064999999999996e-015 90 90 xyz
    dof rx rz 
    limits (-90 90)
           (-45 45)
  end
  begin
    id 22
    name lfingers
    direction 1 -4.49107e-011 -2.6349199999999999e-026
    length 0.42780555000000003
    axis 1.6812999999999999e-014 90 90 xyz
    dof rx 
    limits (0 90)
  end
  begin
    id 23
    name lthumb
    direction 0.70710700000000004 -6.3504800000000005e-011 0.70710700000000004
    length 0.6142455
    axis -90 45 2.8529899999999998e-015 xyz
    dof rx rz 
    limits (-45 45)
           (-45 45)
  end
  begin
    id 24
    name rclavicle
    direction -0.996699 0.064289499999999999 -0.049572499999999999
    length 2.0817494999999999
    axis 0 0 0 xyz
    dof ry rz 
    limits (-10 20)
           (-20 0)
  end
  begin
    id 25
    name rhumerus
    direction -1 -4.4891899999999998e-011 -2.4105900000000001e-027
    length 2.474145
    axis 180 30 90 xyz
    dof rx ry rz 
    limits (-90 60)
           (-90 90)
           (-90 90)
  end
  begin
    id 26
    name rradius
    direction -0.99999899999999997 0.0011810099999999999 -0.00068185800000000003
    length 1.5677145000000001
    axis 180 30 90 xyz
    dof rx 
    limits (-10 170)
  end
  begin
    id 27
    name rwrist
    direction -0.99999899999999997 0.000321823 -0.00132288
    length 0.78385499999999997
    axis 4.6505600000000004e-015 -90 -90 xyz
    dof ry 
    limits (-180 0)
  end
  begin
    id 28
    name rhand
    direction -1 -4.4902199999999998e-011 -1.3174599999999999e-026
    length 0.60719400000000001
    axis 8.4064999999999996e-015 -90 -90 xyz
    dof rx rz 
    limits (-90 90)
           (-45 45)
  end
  begin
    id 29
    name rfingers
    direction -1 -4.4917800000000002e-011 -2.6349199999999999e-026
    length 0.48953249999999998
    axis 1.6812999999999999e-014 -90 -90 xyz
    dof rx 
    limits (0 90)
  end
  begin
    id 30
    name rthumb
    direction -0.70710700000000004 -6.3471300000000002e-011 0.70710700000000004
    length 0.70287750000000004
    axis -90 -45 -2.8529899999999998e-015 xyz
    dof rx rz 
    limits (-45 45)
           (-45 45)
  end
:hierarchy
begin
  root lhipjoint rhipjoint lowerback 
  lhipjoint lfemur 
  lfemur ltibia 
  ltibia lfoot 
  lfoot ltoes 
  rhipjoint rfemur 
  rfemur rtibia 
  rtibia rfoot 
  rfoot rtoes 
  lowerback upperback 
  upperback thorax 
  thorax lowerneck lclavicle rclavicle 
  lowerneck upperneck 
  upperneck head 
  lclavicle lhumerus 
  lhumerus lradius 
  lradius lwrist 
  lwrist lhand lthumb 
  lhand lfingers 
  rclavicle rhumerus 
  rhumerus rradius 
  rradius rwrist 
  rwrist rhand rthumb 
  rhand rfingers 
end

# AMC file generated by Tido's AMC writer for MATLAB on 27-Nov-2005 at 18:24:20
# Corresponding ASF file: S:\data_MoCap\MoCaDaDB\HDM\Bonn_ASF_AMC_Use IK_on\björn\bjorn.asf
# Number of frames: 542
# Sampling rate: 120
:fully-specified
:degrees
136
root -4.83786 8.4995549999999991 -10.339425 176.595 57.121699999999997 539.47299999999996 
lfemur -27.591799999999999 5.5682999999999998 -11.4239 
ltibia 41.741599999999998 
lfoot -9.1441999999999997 0.533887 
ltoes -28.407699999999998 
rfemur -2.2200700000000002 1.37985 27.5562 
rtibia 30.857700000000001 
rfoot -14.9679 27.7774 
rtoes 16.900300000000001 
lowerback 0.127272 0.61224199999999995 -0.48596200000000001 
upperback 10.843299999999999 1.8157099999999999 -2.4998200000000002 
thorax 11.605399999999999 1.28773 -2.1862300000000001 
lowerneck 6.4348099999999997 -14.4086 -0.59379199999999999 
upperneck 1.8898200000000001 -19.105899999999998 12.168900000000001 
head 0.90601600000000004 -9.5787499999999994 4.1034100000000002 
lclavicle 3.2203100000000001e-014 -2.9420099999999997e-014 
lhumerus -35.503700000000002 -2.9906299999999999 90.575699999999998 
lradius 22.591999999999999 
lwrist -20.902899999999999 
lhand -14.2646 -7.1746100000000004 
lfingers 7.1250200000000001 
lthumb 11.873900000000001 22.468699999999998 
rclavicle 3.2203100000000001e-014 -2.9420099999999997e-014 
rhumerus -18.937100000000001 2.4974400000000001 -97.943399999999997 
rradius 42.439100000000003 
rwrist 4.1568699999999996 
rhand -8.7229299999999999 12.3431 
rfingers 7.1250200000000001 
rthumb 17.213100000000001 -16.9145 
137
root -4.7860200000000006 8.4957750000000001 -10.384155 176.596 57.790500000000002 539.46400000000006 
lfemur -27.951000000000001 5.5798899999999998 -11.538399999999999 
ltibia 39.542200000000001 
lfoot -8.6863399999999995 -0.64453000000000005 
ltoes -29.116299999999999 
rfemur -1.43954 1.55314 27.443899999999999 
rtibia 30.385200000000001 
rfoot -14.8695 28.450199999999999 
rtoes 17.110199999999999 
lowerback 0.104883 0.69137700000000002 -0.372859 
upperback 10.867800000000001 1.9250499999999999 -2.5707300000000002 
thorax 11.6599 1.3571899999999999 -2.3149299999999999 
lowerneck 6.3921599999999996 -14.3163 -0.63149900000000003 
upperneck 1.8423 -18.986899999999999 12.1584 
head 0.890795 -9.5217600000000004 4.1067799999999997 
lclavicle -9.0049499999999994e-014 4.4527799999999999e-014 
lhumerus -35.353000000000002 -2.6146699999999998 90.361199999999997 
lradius 22.453700000000001 
lwrist -21.282399999999999 
lhand -13.9254 -7.3297800000000004 
lfingers 7.1250200000000001 
lthumb 12.201000000000001 22.2944 
rclavicle -9.0049499999999994e-014 4.4527799999999999e-014 
rhumerus -19.1127 3.2424599999999999 -98.071200000000005 
rradius 44.313200000000002 
rwrist 3.60459 
rhand -9.0223300000000002 12.6455 
rfingers 7.1250200000000001 
rthumb 16.924900000000001 -16.637 
138
root -4.7341800000000003 8.4899249999999995 -10.429335 176.67699999999999 58.464799999999997 539.53800000000001 
lfemur -28.299600000000002 5.6910999999999996 -11.619899999999999 
ltibia 37.401899999999998 
lfoot -8.3642500000000002 -1.9019299999999999 
ltoes -29.2272 
rfemur -0.70866399999999996 1.66889 27.357600000000001 
rtibia 29.9892 
rfoot -14.754300000000001 29.149899999999999 
rtoes 17.235900000000001 
lowerback 0.069411500000000001 0.77247399999999999 -0.18709300000000001 
upperback 10.898 2.03417 -2.6497700000000002 
thorax 11.733000000000001 1.43462 -2.4927999999999999 
lowerneck 6.2730800000000002 -14.2334 -0.63869600000000004 
upperneck 1.8666 -18.8873 12.127800000000001 
head 0.90839800000000004 -9.4684299999999997 4.0882199999999997 
lclavicle 1.4908899999999999e-014 2.3854199999999999e-014 
lhumerus -35.2346 -2.3033600000000001 90.108199999999997 
lradius 22.405100000000001 
lwrist -21.536300000000001 
lhand -13.775700000000001 -7.3790899999999997 
lfingers 7.1250200000000001 
lthumb 12.3454 22.2364 
rclavicle 1.4908899999999999e-014 2.3854199999999999e-014 
rhumerus -19.317699999999999 3.82484 -98.250699999999995 
rradius 46.176900000000003 
rwrist 3.3295499999999998 
rhand -9.3960299999999997 13.040699999999999 
rfingers 7.1250200000000001 
rthumb 16.565200000000001 -16.272300000000001 
139
root -4.6816200000000006 8.4817800000000005 -10.472760000000001 176.76599999999999 59.118000000000002 539.60799999999995 
lfemur -28.656199999999998 5.88042 -11.7218 
ltibia 35.367199999999997 
lfoot -8.2101600000000001 -3.24098 
ltoes -30.234000000000002 
rfemur -0.027415599999999998 1.79305 27.279699999999998 
rtibia 29.645600000000002 
rfoot -14.6206 29.837399999999999 
rtoes 17.3643 
lowerback 0.0646539 0.85475800000000002 -0.045714200000000003 
upperback 10.892099999999999 2.1413899999999999 -2.7215199999999999 
thorax 11.744300000000001 1.5043500000000001 -2.6389900000000002 
lowerneck 6.2726499999999996 -14.1562 -0.68538399999999999 
upperneck 1.84117 -18.7881 12.120799999999999 
head 0.89622400000000002 -9.4214699999999993 4.0965499999999997 
lclavicle -3.7769100000000001e-015 -1.5107600000000001e-014 
lhumerus -35.084800000000001 -1.9618800000000001 89.834900000000005 
lradius 22.300899999999999 
lwrist -21.838999999999999 
lhand -13.627000000000001 -7.3925400000000003 
lfingers 7.1250200000000001 
lthumb 12.4887 22.214300000000001 
rclavicle -3.7769100000000001e-015 -1.5107600000000001e-014 
rhumerus -19.3232 4.4429400000000001 -98.409000000000006 
rradius 47.756900000000002 
rwrist 2.9390800000000001 
rhand -9.8596000000000004 13.446899999999999 
rfingers 7.1250200000000001 
rthumb 16.1188 -15.902799999999999 
140
root -4.6287899999999995 8.4719250000000006 -10.516905 176.816 59.7699 539.64200000000005 
lfemur -29.001899999999999 6.1976300000000002 -11.890700000000001 
ltibia 33.4878 
lfoot -8.1937999999999995 -4.5425399999999998 
ltoes -30.9238 
rfemur 0.66137199999999996 1.9814000000000001 27.185500000000001 
rtibia 29.336200000000002 
rfoot -14.4415 30.457799999999999 
rtoes 17.734100000000002 
lowerback 0.048232299999999999 0.93355200000000005 0.081530500000000006 
upperback 10.91 2.2485400000000002 -2.79244 
thorax 11.791 1.5742100000000001 -2.7759399999999999 
lowerneck 6.1964699999999997 -14.0665 -0.80010700000000001 
upperneck 1.85338 -18.685500000000001 12.166 
head 0.92164500000000005 -9.3695599999999999 4.1238200000000003 
lclavicle 3.8166699999999998e-014 2.62396e-014 
lhumerus -34.9998 -1.6767700000000001 89.592200000000005 
lradius 22.303799999999999 
lwrist -21.950800000000001 
lhand -13.4078 -7.4505600000000003 
lfingers 7.1250200000000001 
lthumb 12.700100000000001 22.1433 
rclavicle 3.8166699999999998e-014 2.62396e-014 
rhumerus -19.452100000000002 5.0417300000000003 -98.542900000000003 
rradius 49.475200000000001 
rwrist 2.6000700000000001 
rhand -10.309699999999999 13.8574 
rfingers 7.1250200000000001 
rthumb 15.6854 -15.5268 
141
root -4.5747900000000001 8.4620250000000006 -10.560510000000001 176.94999999999999 60.417900000000003 539.76300000000003 
lfemur -29.386199999999999 6.5747 -12.023400000000001 
ltibia 31.814900000000002 
lfoot -8.3027499999999996 -5.5297299999999998 
ltoes -31.445799999999998 
rfemur 1.34788 2.1271 27.132100000000001 
rtibia 29.014900000000001 
rfoot -14.3375 31.0764 
rtoes 17.805 
lowerback 0.025624000000000001 1.0118400000000001 0.24258199999999999 
upperback 10.926299999999999 2.3511099999999998 -2.8533200000000001 
thorax 11.841100000000001 1.6443099999999999 -2.9213100000000001 
lowerneck 6.0769299999999999 -13.9841 -0.90524099999999996 
upperneck 1.8893500000000001 -18.5959 12.2066 
head 0.961727 -9.3216300000000007 4.1430499999999997 
lclavicle 7.1562500000000004e-014 -4.7708300000000003e-014 
lhumerus -34.7592 -1.4128400000000001 89.328699999999998 
lradius 22.179099999999998 
lwrist -22.046600000000002 
lhand -13.215299999999999 -7.4408899999999996 
lfingers 7.1250200000000001 
lthumb 12.8857 22.141300000000001 
rclavicle 7.1562500000000004e-014 -4.7708300000000003e-014 
rhumerus -19.6279 5.5873400000000002 -98.703999999999994 
rradius 51.157600000000002 
rwrist 2.34843 
rhand -10.8552 14.314299999999999 
rfingers 7.1250200000000001 
rthumb 15.16 -15.1104 
142
root -4.5202499999999999 8.452395000000001 -10.603845 177.05600000000001 61.031100000000002 539.84900000000005 
lfemur -29.842099999999999 7.0099799999999997 -12.208399999999999 
ltibia 30.371600000000001 
lfoot -8.2754999999999992 -6.4961599999999997 
ltoes -30.6752 
rfemur 2.0469499999999998 2.2730199999999998 27.056799999999999 
rtibia 28.659700000000001 
rfoot -14.0954 31.697199999999999 
rtoes 18.2379 
lowerback 0.011717999999999999 1.0848800000000001 0.39772400000000002 
upperback 10.9238 2.4456899999999999 -2.9253399999999998 
thorax 11.8649 1.7098100000000001 -3.0766399999999998 
lowerneck 6.0295500000000004 -13.897399999999999 -1.0254399999999999 
upperneck 1.92676 -18.497299999999999 12.250400000000001 
head 0.99113399999999996 -9.2712500000000002 4.1726400000000003 
lclavicle -2.9817699999999997e-014 4.7708300000000003e-015 
lhumerus -34.647599999999997 -1.09022 89.050700000000006 
lradius 22.1418 
lwrist -22.2453 
lhand -13.140499999999999 -7.3895600000000004 
lfingers 7.1250200000000001 
lthumb 12.957800000000001 22.188099999999999 
rclavicle -2.9817699999999997e-014 4.7708300000000003e-015 
rhumerus -19.741099999999999 6.1652399999999998 -98.806200000000004 
rradius 52.697499999999998 
rwrist 2.0094400000000001 
rhand -11.385199999999999 14.831099999999999 
rfingers 7.1250200000000001 
rthumb 14.6494 -14.631399999999999 
